<svg width="60" height="60" viewBox="0 0 60 60" fill="none" xmlns="http://www.w3.org/2000/svg">
<g clip-path="url(#clip0_10_227)">
<path d="M0 19.92C0 3.51588 3.51588 0 19.92 0H40.08C56.4841 0 60 3.51588 60 19.92V40.08C60 56.4841 56.4841 60 40.08 60H19.92C3.51588 60 0 56.4841 0 40.08V19.92Z" fill="#F5F1ED"/>
<path d="M7.87399 32.9408C7.87399 33.0082 7.86523 33.08 7.84765 33.1562C7.83301 33.2323 7.80079 33.3041 7.75099 33.3715C7.70407 33.436 7.63669 33.4901 7.54885 33.5341C7.46095 33.578 7.34665 33.6 7.20607 33.6H5.27246C5.13477 33.6 5.02197 33.5868 4.93408 33.5605C4.84912 33.5341 4.78174 33.496 4.73193 33.4462C4.68213 33.3964 4.64844 33.3334 4.63086 33.2572C4.61328 33.1811 4.60449 33.0917 4.60449 32.9891V28.0541C4.60449 27.8871 4.62354 27.7538 4.66162 27.6542C4.69971 27.5516 4.7539 27.474 4.82422 27.4213C4.89453 27.3656 4.97803 27.3305 5.07471 27.3158C5.17432 27.2983 5.28418 27.2894 5.4043 27.2894H9.48679C9.62743 27.2894 9.69775 27.3627 9.69775 27.5092V27.9135C9.69775 27.9721 9.68017 28.0102 9.64501 28.0277C9.60985 28.0453 9.56737 28.0541 9.51757 28.0541C9.48829 28.0541 9.44287 28.0497 9.38137 28.0409C9.31981 28.0321 9.24805 28.0219 9.16603 28.0102C9.08395 27.9955 8.99461 27.9794 8.89795 27.9618C8.80417 27.9413 8.70895 27.9223 8.61229 27.9047C8.38669 27.8608 8.14063 27.8095 7.87399 27.7509V28.8671H9.50881C9.57031 28.8671 9.60109 28.8979 9.60109 28.9594V29.3988C9.60109 29.4633 9.57031 29.4955 9.50881 29.4955H7.87399V32.9408ZM7.50049 27.685L7.15771 27.6146V33.2309C7.22803 33.2309 7.28515 33.2294 7.32907 33.2264C7.37305 33.2206 7.40821 33.2089 7.43455 33.1913C7.46095 33.1708 7.47853 33.143 7.48729 33.1078C7.49611 33.0697 7.50049 33.017 7.50049 32.9496V27.685ZM12.3828 33.7538C12.1631 33.7538 11.9434 33.7363 11.7237 33.7011C11.5039 33.6659 11.293 33.6103 11.0908 33.5341C10.8916 33.4579 10.7056 33.3583 10.5327 33.2353C10.3599 33.1122 10.209 32.9613 10.0801 32.7826C9.95407 32.6039 9.85447 32.3974 9.78127 32.163C9.70801 31.9257 9.67141 31.6547 9.67141 31.35C9.67141 31.0512 9.70801 30.7846 9.78127 30.5502C9.85447 30.3129 9.95407 30.1049 10.0801 29.9262C10.209 29.7475 10.3599 29.5966 10.5327 29.4736C10.7056 29.3476 10.8916 29.2465 11.0908 29.1703C11.293 29.0912 11.5039 29.0341 11.7237 28.9989C11.9434 28.9637 12.1631 28.9462 12.3828 28.9462C12.585 28.9462 12.7915 28.9594 13.0024 28.9858C13.2163 29.0092 13.4229 29.0546 13.6221 29.122C13.8242 29.1864 14.0132 29.2758 14.1889 29.39C14.3677 29.5013 14.523 29.6449 14.6548 29.8207C14.7895 29.9965 14.895 30.2074 14.9712 30.4535C15.0503 30.6967 15.0898 30.9838 15.0898 31.3148C15.0898 31.6547 15.0517 31.952 14.9756 32.2069C14.8994 32.4589 14.7939 32.6757 14.6592 32.8573C14.5273 33.0361 14.3736 33.184 14.1978 33.3012C14.022 33.4184 13.833 33.5107 13.6309 33.578C13.4316 33.6425 13.2251 33.6879 13.0113 33.7142C12.7974 33.7406 12.5879 33.7538 12.3828 33.7538ZM13.7319 32.6991C13.8228 32.6991 13.9121 32.6801 14 32.642C14.0908 32.601 14.1699 32.5292 14.2373 32.4266C14.3076 32.3241 14.3633 32.1835 14.4043 32.0048C14.4483 31.8232 14.4702 31.5932 14.4702 31.3148C14.4702 31.0512 14.4483 30.8344 14.4043 30.6644C14.3633 30.4945 14.3076 30.3613 14.2373 30.2645C14.167 30.1649 14.0879 30.0961 14 30.058C13.9121 30.0199 13.8228 30.0009 13.7319 30.0009C13.6616 30.0009 13.5825 30.0155 13.4946 30.0448C13.4097 30.0741 13.3291 30.1371 13.2529 30.2338C13.1797 30.3275 13.1182 30.4637 13.0684 30.6425C13.0186 30.8183 12.9937 31.0541 12.9937 31.35C12.9937 31.6459 13.0141 31.8832 13.0552 32.0619C13.0962 32.2406 13.1504 32.3768 13.2178 32.4706C13.2852 32.5643 13.3628 32.6259 13.4507 32.6552C13.5415 32.6845 13.6353 32.6991 13.7319 32.6991ZM13.4023 32.8749C13.3057 32.8573 13.2105 32.8237 13.1167 32.7738C13.023 32.724 12.9394 32.6435 12.8662 32.5321C12.793 32.4179 12.7329 32.267 12.6861 32.0795C12.6421 31.889 12.6201 31.6459 12.6201 31.35C12.6201 31.1537 12.6318 30.9809 12.6553 30.8314C12.6816 30.682 12.7153 30.5531 12.7564 30.4447C12.8003 30.3363 12.8501 30.2455 12.9058 30.1723C12.9615 30.099 13.0171 30.0389 13.0728 29.9921C13.1314 29.9423 13.1885 29.9057 13.2441 29.8822C13.3027 29.8559 13.3555 29.8368 13.4023 29.8251C13.2998 29.8251 13.1826 29.8486 13.0508 29.8954C12.9189 29.9393 12.7944 30.0185 12.6772 30.1327C12.5601 30.247 12.4605 30.4037 12.3784 30.6029C12.2993 30.7992 12.2598 31.0483 12.2598 31.35C12.2598 31.6547 12.2949 31.9052 12.3652 32.1014C12.4356 32.2978 12.5249 32.453 12.6333 32.5673C12.7446 32.6815 12.8677 32.7621 13.0024 32.809C13.1401 32.8529 13.2735 32.8749 13.4023 32.8749ZM18.2715 33.7538C18.0517 33.7538 17.832 33.7363 17.6123 33.7011C17.3926 33.6659 17.1816 33.6103 16.9795 33.5341C16.7803 33.4579 16.5942 33.3583 16.4214 33.2353C16.2486 33.1122 16.0977 32.9613 15.9688 32.7826C15.8428 32.6039 15.7432 32.3974 15.6699 32.163C15.5967 31.9257 15.5601 31.6547 15.5601 31.35C15.5601 31.0512 15.5967 30.7846 15.6699 30.5502C15.7432 30.3129 15.8428 30.1049 15.9688 29.9262C16.0977 29.7475 16.2486 29.5966 16.4214 29.4736C16.5942 29.3476 16.7803 29.2465 16.9795 29.1703C17.1816 29.0912 17.3926 29.0341 17.6123 28.9989C17.832 28.9637 18.0517 28.9462 18.2715 28.9462C18.4737 28.9462 18.6802 28.9594 18.8911 28.9858C19.105 29.0092 19.3115 29.0546 19.5108 29.122C19.7129 29.1864 19.9018 29.2758 20.0776 29.39C20.2564 29.5013 20.4116 29.6449 20.5435 29.8207C20.6782 29.9965 20.7837 30.2074 20.8599 30.4535C20.9389 30.6967 20.9785 30.9838 20.9785 31.3148C20.9785 31.6547 20.9404 31.952 20.8642 32.2069C20.7881 32.4589 20.6826 32.6757 20.5479 32.8573C20.416 33.0361 20.2622 33.184 20.0865 33.3012C19.9107 33.4184 19.7217 33.5107 19.5195 33.578C19.3203 33.6425 19.1138 33.6879 18.8999 33.7142C18.6861 33.7406 18.4765 33.7538 18.2715 33.7538ZM19.6206 32.6991C19.7115 32.6991 19.8008 32.6801 19.8887 32.642C19.9795 32.601 20.0586 32.5292 20.126 32.4266C20.1963 32.3241 20.2519 32.1835 20.293 32.0048C20.3369 31.8232 20.3589 31.5932 20.3589 31.3148C20.3589 31.0512 20.3369 30.8344 20.293 30.6644C20.2519 30.4945 20.1963 30.3613 20.126 30.2645C20.0557 30.1649 19.9765 30.0961 19.8887 30.058C19.8008 30.0199 19.7115 30.0009 19.6206 30.0009C19.5503 30.0009 19.4712 30.0155 19.3833 30.0448C19.2984 30.0741 19.2178 30.1371 19.1416 30.2338C19.0684 30.3275 19.0068 30.4637 18.957 30.6425C18.9072 30.8183 18.8823 31.0541 18.8823 31.35C18.8823 31.6459 18.9028 31.8832 18.9439 32.0619C18.9849 32.2406 19.039 32.3768 19.1065 32.4706C19.1739 32.5643 19.2514 32.6259 19.3393 32.6552C19.4302 32.6845 19.524 32.6991 19.6206 32.6991ZM19.291 32.8749C19.1943 32.8573 19.0991 32.8237 19.0054 32.7738C18.9116 32.724 18.8281 32.6435 18.7549 32.5321C18.6816 32.4179 18.6216 32.267 18.5747 32.0795C18.5308 31.889 18.5088 31.6459 18.5088 31.35C18.5088 31.1537 18.5205 30.9809 18.5439 30.8314C18.5703 30.682 18.604 30.5531 18.645 30.4447C18.6889 30.3363 18.7388 30.2455 18.7944 30.1723C18.8501 30.099 18.9058 30.0389 18.9615 29.9921C19.02 29.9423 19.0771 29.9057 19.1328 29.8822C19.1914 29.8559 19.2441 29.8368 19.291 29.8251C19.1885 29.8251 19.0713 29.8486 18.9394 29.8954C18.8076 29.9393 18.6831 30.0185 18.5659 30.1327C18.4488 30.247 18.3491 30.4037 18.2671 30.6029C18.188 30.7992 18.1485 31.0483 18.1485 31.35C18.1485 31.6547 18.1836 31.9052 18.2539 32.1014C18.3242 32.2978 18.4136 32.453 18.522 32.5673C18.6333 32.6815 18.7564 32.7621 18.8911 32.809C19.0288 32.8529 19.1621 32.8749 19.291 32.8749ZM21.3081 30.5414C21.2466 30.5414 21.2158 30.5092 21.2158 30.4447V30.0932C21.2158 30.0316 21.2466 30.0009 21.3081 30.0009H21.7651V29.0033C21.7651 28.9594 21.771 28.9154 21.7827 28.8715C21.7974 28.8275 21.834 28.7938 21.8926 28.7704L24.3184 27.8739C24.4297 27.8329 24.522 27.8021 24.5952 27.7816C24.6685 27.7612 24.7329 27.7509 24.7886 27.7509C24.8091 27.7509 24.8311 27.7553 24.8545 27.764C24.8809 27.7699 24.9043 27.7816 24.9248 27.7992C24.9483 27.8168 24.9673 27.8417 24.9819 27.8739C24.9966 27.9032 25.0039 27.9398 25.0039 27.9838V30.0009H25.7949C25.8565 30.0009 25.8872 30.0316 25.8872 30.0932V30.4447C25.8872 30.5092 25.8565 30.5414 25.7949 30.5414H25.0039V32.3124C25.0039 32.5204 25.0376 32.6669 25.105 32.7518C25.1753 32.8368 25.2822 32.8793 25.4258 32.8793C25.458 32.8793 25.4917 32.8763 25.5268 32.8705C25.562 32.8617 25.5942 32.8544 25.6236 32.8486C25.6558 32.8397 25.6851 32.8324 25.7115 32.8265C25.7378 32.8178 25.7598 32.8134 25.7773 32.8134C25.8096 32.8134 25.8257 32.8324 25.8257 32.8705V33.2089C25.8257 33.2675 25.8139 33.307 25.7905 33.3275C25.7671 33.3481 25.7466 33.3613 25.729 33.3671C25.6177 33.4139 25.4859 33.4609 25.3335 33.5077C25.1841 33.5546 25.0215 33.5956 24.8457 33.6308C24.6729 33.6688 24.4897 33.6982 24.2964 33.7187C24.103 33.7421 23.9097 33.7538 23.7163 33.7538C23.438 33.7538 23.1787 33.7391 22.9385 33.7099C22.7012 33.6835 22.4946 33.6205 22.3189 33.5209C22.146 33.4213 22.0098 33.2734 21.9102 33.077C21.8135 32.8808 21.7651 32.6141 21.7651 32.2772V30.5414H21.3081ZM24.6304 28.3793C24.6304 28.3207 24.6231 28.2738 24.6084 28.2387C24.5967 28.2006 24.5659 28.1815 24.5161 28.1815C24.4986 28.1815 24.4751 28.1845 24.4458 28.1903C24.4194 28.1962 24.3901 28.2064 24.3579 28.2211L24.2876 28.2518V32.4266C24.2876 32.5585 24.3096 32.6654 24.3535 32.7475C24.3975 32.8295 24.4516 32.8939 24.5161 32.9408C24.5806 32.9877 24.6494 33.0199 24.7227 33.0375C24.7959 33.0521 24.8618 33.0595 24.9204 33.0595C24.8764 33.0243 24.8355 32.9891 24.7974 32.954C24.7622 32.9159 24.7315 32.8735 24.7051 32.8265C24.6816 32.7767 24.6626 32.7226 24.648 32.6639C24.6363 32.6024 24.6304 32.5292 24.6304 32.4442V28.3793ZM29.0161 33.6879C28.6323 33.6879 28.2881 33.6366 27.9834 33.5341C27.6787 33.4315 27.4209 33.2836 27.21 33.0902C26.999 32.8939 26.8379 32.6522 26.7265 32.3651C26.6152 32.078 26.5596 31.7499 26.5596 31.3808V27.0038C26.5596 26.9042 26.5684 26.8163 26.586 26.7401C26.6035 26.6611 26.6372 26.5966 26.687 26.5468C26.7368 26.497 26.8057 26.4589 26.8936 26.4325C26.9815 26.4062 27.0957 26.393 27.2364 26.393H29.1612C29.2871 26.393 29.3911 26.4062 29.4732 26.4325C29.5552 26.4589 29.6196 26.4985 29.6665 26.5512C29.7163 26.601 29.75 26.6654 29.7676 26.7445C29.7881 26.8207 29.7984 26.9115 29.7984 27.017V29.1C30.0562 29.1469 30.3008 29.2231 30.5322 29.3285C30.7666 29.4311 30.9717 29.5732 31.1475 29.7548C31.3233 29.9335 31.4624 30.1547 31.5649 30.4184C31.6675 30.682 31.7188 30.9985 31.7188 31.3676C31.7188 31.6752 31.6821 31.9462 31.6089 32.1806C31.5386 32.412 31.4389 32.6141 31.3101 32.787C31.1841 32.9599 31.0347 33.1034 30.8618 33.2177C30.6919 33.3319 30.5059 33.4242 30.3037 33.4945C30.1045 33.5648 29.895 33.6146 29.6753 33.6439C29.4556 33.6733 29.2359 33.6879 29.0161 33.6879ZM29.7984 33.0638C30.0268 33.0346 30.2232 32.9731 30.3872 32.8793C30.5513 32.7826 30.6846 32.6596 30.7871 32.5102C30.8926 32.3608 30.9702 32.1893 31.02 31.996C31.0698 31.8026 31.0947 31.5932 31.0947 31.3676C31.0947 31.1449 31.0698 30.9355 31.02 30.7391C30.9702 30.5429 30.8926 30.37 30.7871 30.2206C30.6816 30.0712 30.5469 29.9482 30.3828 29.8514C30.2217 29.7548 30.0268 29.6918 29.7984 29.6625V33.0638ZM29.4248 27.0521C29.4248 26.9877 29.4204 26.9364 29.4116 26.8984C29.4028 26.8603 29.3853 26.8324 29.3589 26.8148C29.3325 26.7943 29.2974 26.7826 29.2534 26.7797C29.2095 26.7738 29.1523 26.7709 29.082 26.7709V33.1517C29.0967 33.1517 29.1187 33.1517 29.148 33.1517C29.1772 33.1488 29.208 33.1474 29.2402 33.1474C29.2754 33.1444 29.3091 33.1415 29.3413 33.1386C29.3736 33.1357 29.4014 33.1313 29.4248 33.1254V27.0521ZM34.1973 33.6C34.039 33.6 33.8794 33.5897 33.7183 33.5692C33.5601 33.5488 33.4077 33.5165 33.2613 33.4726C33.1177 33.4257 32.9829 33.3656 32.8569 33.2924C32.731 33.2191 32.6211 33.1283 32.5273 33.0199C32.4365 32.9115 32.3647 32.7841 32.312 32.6376C32.2593 32.4911 32.2329 32.3227 32.2329 32.1322C32.2329 31.8773 32.2813 31.6591 32.3779 31.4774C32.4746 31.2958 32.6035 31.1449 32.7646 31.0248C32.9287 30.9047 33.1162 30.8124 33.3271 30.748C33.5381 30.6835 33.7564 30.6425 33.9819 30.6249V30.3217C33.9819 30.2074 33.9673 30.1166 33.938 30.0492C33.9087 29.9818 33.8706 29.932 33.8238 29.8998C33.7798 29.8646 33.73 29.8427 33.6743 29.8339C33.6216 29.8222 33.5703 29.8163 33.5205 29.8163C33.4619 29.8163 33.399 29.8251 33.3315 29.8427C33.2671 29.8603 33.2041 29.8822 33.1426 29.9086C33.0811 29.932 33.0225 29.9584 32.9668 29.9877C32.9112 30.017 32.8642 30.0434 32.8262 30.0668C32.8086 30.0785 32.7925 30.0887 32.7778 30.0976C32.7632 30.1063 32.7486 30.1108 32.7339 30.1108C32.7075 30.1108 32.6826 30.0917 32.6592 30.0536L32.5098 29.8163C32.4951 29.7958 32.4878 29.7738 32.4878 29.7504C32.4878 29.7269 32.4966 29.7064 32.5141 29.6888C32.5347 29.6713 32.5537 29.6566 32.5713 29.6449C32.668 29.5775 32.791 29.5087 32.9404 29.4384C33.0898 29.3681 33.2568 29.3051 33.4414 29.2494C33.6289 29.1937 33.8311 29.1484 34.0479 29.1132C34.2646 29.078 34.4888 29.0605 34.7202 29.0605C34.9399 29.0605 35.1538 29.0678 35.3618 29.0824C35.5728 29.0971 35.7705 29.1293 35.9551 29.1791C36.1426 29.226 36.3125 29.2948 36.4648 29.3857C36.6201 29.4736 36.7534 29.5907 36.8647 29.7372C36.979 29.8837 37.0669 30.0638 37.1284 30.2777C37.1899 30.4916 37.2207 30.748 37.2207 31.0468V33.0067C37.2207 33.1034 37.2119 33.1898 37.1943 33.266C37.1767 33.3392 37.1431 33.4008 37.0933 33.4506C37.0435 33.5004 36.9746 33.5385 36.8867 33.5648C36.7989 33.5883 36.6846 33.6 36.5439 33.6H34.1973ZM33.9819 31.183C33.771 31.183 33.5938 31.2094 33.4502 31.2621C33.3066 31.3148 33.1909 31.3852 33.103 31.4731C33.0151 31.561 32.9521 31.6635 32.914 31.7807C32.876 31.8949 32.8569 32.0136 32.8569 32.1366C32.8569 32.2597 32.876 32.3768 32.914 32.4882C32.9521 32.5966 33.0151 32.6918 33.103 32.7738C33.1909 32.8559 33.3066 32.9203 33.4502 32.9672C33.5938 33.014 33.771 33.0375 33.9819 33.0375V31.183ZM36.5044 33.2309C36.5747 33.2309 36.6318 33.2294 36.6758 33.2264C36.7197 33.2206 36.7549 33.2089 36.7813 33.1913C36.8076 33.1708 36.8252 33.143 36.834 33.1078C36.8428 33.0697 36.8472 33.017 36.8472 32.9496V30.9501C36.8472 30.7128 36.8223 30.5136 36.7725 30.3524C36.7227 30.1884 36.6597 30.0551 36.5835 29.9525C36.5103 29.8471 36.4297 29.768 36.3418 29.7152C36.2539 29.6596 36.1719 29.6186 36.0957 29.5922C36.1309 29.6303 36.1719 29.6845 36.2188 29.7548C36.2686 29.8251 36.3139 29.9144 36.355 30.0229C36.396 30.1313 36.4312 30.2616 36.4605 30.4139C36.4897 30.5634 36.5044 30.7363 36.5044 30.9325V33.2309ZM38.0293 27.0126C38.0293 26.913 38.0381 26.8251 38.0557 26.7489C38.0733 26.6698 38.1069 26.6054 38.1567 26.5556C38.2065 26.5058 38.2754 26.4677 38.3633 26.4413C38.4512 26.4149 38.5654 26.4017 38.7061 26.4017H40.6309C40.7656 26.4017 40.874 26.4149 40.9561 26.4413C41.0381 26.4647 41.1025 26.5013 41.1494 26.5512C41.1963 26.601 41.227 26.6639 41.2417 26.7401C41.2593 26.8163 41.2681 26.9057 41.2681 27.0082V32.998C41.2681 33.0976 41.2593 33.1855 41.2417 33.2616C41.2241 33.3349 41.1919 33.3979 41.145 33.4506C41.0982 33.5004 41.0322 33.5385 40.9473 33.5648C40.8652 33.5883 40.7568 33.6 40.6221 33.6H38.7061C38.5654 33.6 38.4512 33.5868 38.3633 33.5605C38.2754 33.5341 38.2065 33.496 38.1567 33.4462C38.1069 33.3964 38.0733 33.3334 38.0557 33.2572C38.0381 33.1811 38.0293 33.0917 38.0293 32.9891V27.0126ZM40.8945 27.0521C40.8945 26.9877 40.8901 26.9364 40.8814 26.8984C40.8726 26.8603 40.855 26.8324 40.8286 26.8148C40.8022 26.7943 40.7671 26.7826 40.7232 26.7797C40.6792 26.7738 40.6221 26.7709 40.5517 26.7709V33.2309C40.6221 33.2309 40.6792 33.2294 40.7232 33.2264C40.7671 33.2206 40.8022 33.2089 40.8286 33.1913C40.855 33.1708 40.8726 33.143 40.8814 33.1078C40.8901 33.0697 40.8945 33.017 40.8945 32.9496V27.0521ZM42.0811 27.0126C42.0811 26.913 42.0898 26.8251 42.1074 26.7489C42.125 26.6698 42.1587 26.6054 42.2085 26.5556C42.2583 26.5058 42.3271 26.4677 42.415 26.4413C42.5029 26.4149 42.6172 26.4017 42.7578 26.4017H44.6826C44.8174 26.4017 44.9258 26.4149 45.0078 26.4413C45.0898 26.4647 45.1543 26.5013 45.2012 26.5512C45.2481 26.601 45.2788 26.6639 45.2935 26.7401C45.3111 26.8163 45.3198 26.9057 45.3198 27.0082V32.998C45.3198 33.0976 45.3111 33.1855 45.2935 33.2616C45.2759 33.3349 45.2437 33.3979 45.1968 33.4506C45.1499 33.5004 45.084 33.5385 44.999 33.5648C44.917 33.5883 44.8086 33.6 44.6739 33.6H42.7578C42.6172 33.6 42.5029 33.5868 42.415 33.5605C42.3271 33.5341 42.2583 33.496 42.2085 33.4462C42.1587 33.3964 42.125 33.3334 42.1074 33.2572C42.0898 33.1811 42.0811 33.0917 42.0811 32.9891V27.0126ZM44.9463 27.0521C44.9463 26.9877 44.9419 26.9364 44.9331 26.8984C44.9243 26.8603 44.9067 26.8324 44.8804 26.8148C44.854 26.7943 44.8189 26.7826 44.7749 26.7797C44.731 26.7738 44.6739 26.7709 44.6035 26.7709V33.2309C44.6739 33.2309 44.731 33.2294 44.7749 33.2264C44.8189 33.2206 44.854 33.2089 44.8804 33.1913C44.9067 33.1708 44.9243 33.143 44.9331 33.1078C44.9419 33.0697 44.9463 33.017 44.9463 32.9496V27.0521ZM48.708 27.2894C48.7608 27.2894 48.8062 27.2968 48.8442 27.3114C48.8823 27.3232 48.916 27.3451 48.9453 27.3773C48.9775 27.4096 49.0068 27.452 49.0332 27.5048C49.0596 27.5575 49.0874 27.622 49.1167 27.6982L51.1338 33.0859C51.1485 33.1268 51.1587 33.1635 51.1645 33.1957C51.1704 33.2279 51.1734 33.2602 51.1734 33.2924C51.1734 33.3979 51.1411 33.4755 51.0766 33.5253C51.0151 33.5751 50.9492 33.6 50.8789 33.6H48.3872C48.3111 33.6 48.2466 33.5912 48.1939 33.5737C48.144 33.5531 48.1015 33.5297 48.0664 33.5033C48.0313 33.4769 48.0034 33.4491 47.9829 33.4198C47.9653 33.3905 47.9536 33.3641 47.9478 33.3407L47.8994 33.1869H46.6645L46.6338 33.3187C46.625 33.3627 46.6147 33.4022 46.603 33.4374C46.5913 33.4696 46.5766 33.4989 46.5591 33.5253C46.5415 33.5488 46.5166 33.5678 46.4844 33.5824C46.4551 33.5941 46.4155 33.6 46.3657 33.6H45.9131C45.8193 33.6 45.7725 33.5634 45.7725 33.4901C45.7725 33.4637 45.7768 33.433 45.7857 33.3979C45.7974 33.3598 45.812 33.3158 45.8296 33.266L47.6665 27.7069C47.7105 27.5692 47.7603 27.4667 47.8159 27.3993C47.8716 27.3319 47.9507 27.2953 48.0532 27.2894H48.708ZM46.8008 32.6464H47.75L47.2622 30.9281L46.8008 32.6464ZM48.7564 27.7992C48.7329 27.7377 48.7036 27.6996 48.6685 27.685C48.6363 27.6674 48.5791 27.6586 48.4971 27.6586H48.3433L50.4219 33.2309H50.6328C50.6856 33.2309 50.7207 33.2206 50.7383 33.2001C50.7588 33.1766 50.7573 33.1357 50.7339 33.077L48.7564 27.7992ZM51.626 27.9047C51.626 27.8021 51.6348 27.7128 51.6523 27.6366C51.6699 27.5605 51.7036 27.4975 51.7534 27.4477C51.8032 27.3949 51.8721 27.3554 51.96 27.329C52.0479 27.3026 52.1621 27.2894 52.3027 27.2894H54.2627C54.4326 27.2894 54.5615 27.3143 54.6494 27.3641C54.7402 27.4139 54.8032 27.4769 54.8384 27.5531C54.8764 27.6263 54.897 27.7055 54.8999 27.7904C54.9028 27.8725 54.9043 27.9487 54.9043 28.0189V32.8881C54.9043 32.9555 54.8985 33.0302 54.8867 33.1122C54.875 33.1942 54.8457 33.2719 54.7989 33.3451C54.7519 33.4154 54.6802 33.4755 54.5835 33.5253C54.4868 33.5751 54.3535 33.6 54.1836 33.6H52.3027C52.1621 33.6 52.0479 33.5868 51.96 33.5605C51.8721 33.5341 51.8032 33.496 51.7534 33.4462C51.7036 33.3964 51.6699 33.3334 51.6523 33.2572C51.6348 33.1811 51.626 33.0917 51.626 32.9891V27.9047ZM54.5308 27.9398C54.5308 27.8754 54.5264 27.8241 54.5176 27.7861C54.5088 27.748 54.4912 27.7201 54.4648 27.7025C54.4385 27.682 54.4033 27.6703 54.3594 27.6674C54.3154 27.6615 54.2583 27.6586 54.188 27.6586V33.2309C54.2583 33.2309 54.3154 33.2294 54.3594 33.2264C54.4033 33.2206 54.4385 33.2089 54.4648 33.1913C54.4912 33.1708 54.5088 33.143 54.5176 33.1078C54.5264 33.0697 54.5308 33.017 54.5308 32.9496V27.9398Z" fill="#145248"/>
</g>
<defs>
<clipPath id="clip0_10_227">
<rect width="60" height="60" fill="white"/>
</clipPath>
</defs>
</svg>
